<svg width="1024" height="1024" viewBox="0 0 1024 1024" fill="none" xmlns="http://www.w3.org/2000/svg">
  <defs>
    <linearGradient id="bg" x1="164" y1="118" x2="850" y2="904" gradientUnits="userSpaceOnUse">
      <stop offset="0" stop-color="#102433"/>
      <stop offset="0.52" stop-color="#0B1118"/>
      <stop offset="1" stop-color="#12151D"/>
    </linearGradient>
    <radialGradient id="glowA" cx="0" cy="0" r="1" gradientUnits="userSpaceOnUse" gradientTransform="translate(274 236) rotate(44) scale(640)">
      <stop stop-color="#2DD4BF" stop-opacity="0.55"/>
      <stop offset="0.48" stop-color="#2DD4BF" stop-opacity="0.12"/>
      <stop offset="1" stop-color="#2DD4BF" stop-opacity="0"/>
    </radialGradient>
    <radialGradient id="glowB" cx="0" cy="0" r="1" gradientUnits="userSpaceOnUse" gradientTransform="translate(746 782) rotate(-132) scale(560)">
      <stop stop-color="#F8C65B" stop-opacity="0.36"/>
      <stop offset="0.45" stop-color="#F8C65B" stop-opacity="0.1"/>
      <stop offset="1" stop-color="#F8C65B" stop-opacity="0"/>
    </radialGradient>
    <linearGradient id="mark" x1="248" y1="242" x2="718" y2="790" gradientUnits="userSpaceOnUse">
      <stop offset="0" stop-color="#7DD3FC"/>
      <stop offset="0.46" stop-color="#2DD4BF"/>
      <stop offset="1" stop-color="#A3E635"/>
    </linearGradient>
    <linearGradient id="edge" x1="276" y1="254" x2="760" y2="772" gradientUnits="userSpaceOnUse">
      <stop stop-color="#ECFEFF" stop-opacity="0.9"/>
      <stop offset="0.5" stop-color="#D1FAE5" stop-opacity="0.32"/>
      <stop offset="1" stop-color="#ECFCCB" stop-opacity="0.72"/>
    </linearGradient>
    <filter id="softShadow" x="144" y="156" width="760" height="740" filterUnits="userSpaceOnUse" color-interpolation-filters="sRGB">
      <feDropShadow dx="0" dy="34" stdDeviation="42" flood-color="#000000" flood-opacity="0.48"/>
      <feDropShadow dx="0" dy="0" stdDeviation="18" flood-color="#22D3EE" flood-opacity="0.2"/>
    </filter>
    <clipPath id="clip">
      <rect x="48" y="48" width="928" height="928" rx="220"/>
    </clipPath>
  </defs>
  <rect width="1024" height="1024" rx="236" fill="#080D12"/>
  <g clip-path="url(#clip)">
    <rect x="48" y="48" width="928" height="928" rx="220" fill="url(#bg)"/>
    <rect x="48" y="48" width="928" height="928" rx="220" fill="url(#glowA)"/>
    <rect x="48" y="48" width="928" height="928" rx="220" fill="url(#glowB)"/>
    <path d="M156 308H868M156 512H868M156 716H868" stroke="#FFFFFF" stroke-opacity="0.045" stroke-width="3"/>
    <path d="M308 156V868M512 156V868M716 156V868" stroke="#FFFFFF" stroke-opacity="0.045" stroke-width="3"/>
  </g>
  <g filter="url(#softShadow)">
    <path d="M244.9 260.7C253.3 238.7 274.4 224 298 224H795.7C817.6 224 832.9 245.8 825.5 266.4L791.8 359.8C783.7 382.4 762.2 397.5 738.2 397.5H596V735.5C596 772.9 565.7 803.2 528.3 803.2H471.2C442.2 803.2 418.7 779.7 418.7 750.7V397.5H254.1C224.8 397.5 204.5 368.2 214.9 340.8L244.9 260.7Z" fill="url(#mark)"/>
    <path d="M297.4 259.5H744.1C756.8 259.5 765.6 272.1 761.3 284L743.4 333.7C740.8 340.8 734.1 345.5 726.6 345.5H565.1C553.3 345.5 543.7 355.1 543.7 366.9V731.7C543.7 743.5 534.1 753.1 522.3 753.1H490.8C479 753.1 469.4 743.5 469.4 731.7V366.9C469.4 355.1 459.8 345.5 448 345.5H287.4C274.9 345.5 266.2 333 270.4 321.3L288.5 271.3C289.9 267.2 293.2 263.9 297.4 259.5Z" fill="#FFFFFF" fill-opacity="0.14"/>
    <path d="M244.9 260.7C253.3 238.7 274.4 224 298 224H795.7C817.6 224 832.9 245.8 825.5 266.4L791.8 359.8C783.7 382.4 762.2 397.5 738.2 397.5H596V735.5C596 772.9 565.7 803.2 528.3 803.2H471.2C442.2 803.2 418.7 779.7 418.7 750.7V397.5H254.1C224.8 397.5 204.5 368.2 214.9 340.8L244.9 260.7Z" stroke="url(#edge)" stroke-width="12" stroke-linejoin="round"/>
  </g>
  <path d="M327 315H698" stroke="#F8FAFC" stroke-opacity="0.62" stroke-width="14" stroke-linecap="round"/>
  <path d="M512 382V672" stroke="#F8FAFC" stroke-opacity="0.52" stroke-width="14" stroke-linecap="round"/>
  <circle cx="327" cy="315" r="22" fill="#F8FAFC"/>
  <circle cx="512" cy="315" r="18" fill="#D1FAE5"/>
  <circle cx="698" cy="315" r="22" fill="#ECFCCB"/>
  <circle cx="512" cy="672" r="20" fill="#ECFEFF"/>
</svg>
